<svg id="visual" viewBox="0 0 900 600" width="900" height="600" xmlns="http://www.w3.org/2000/svg" xmlns:xlink="http://www.w3.org/1999/xlink" version="1.1"><rect x="0" y="0" width="900" height="600" fill="#0d4dfd"></rect><defs><linearGradient id="grad1_0" x1="33.3%" y1="100%" x2="100%" y2="0%"><stop offset="20%" stop-color="#0d4dfd" stop-opacity="1"></stop><stop offset="80%" stop-color="#0d4dfd" stop-opacity="1"></stop></linearGradient></defs><defs><linearGradient id="grad2_0" x1="0%" y1="100%" x2="66.7%" y2="0%"><stop offset="20%" stop-color="#0d4dfd" stop-opacity="1"></stop><stop offset="80%" stop-color="#0d4dfd" stop-opacity="1"></stop></linearGradient></defs><g transform="translate(900, 600)"><path d="M-540.8 0C-520.2 -51.6 -499.5 -103.2 -483.1 -157C-466.7 -210.8 -454.6 -266.9 -423.1 -307.4C-391.7 -347.9 -340.9 -372.9 -296.8 -408.6C-252.8 -444.2 -215.5 -490.5 -167.1 -514.4C-118.8 -538.2 -59.4 -539.5 0 -540.8L0 0Z" fill="#f4f4f4"></path></g><g transform="translate(0, 0)"><path d="M540.8 0C501.3 46.9 461.8 93.9 444.1 144.3C426.5 194.7 430.6 248.6 415 301.5C399.4 354.5 364 406.4 317.9 437.5C271.8 468.7 214.8 478.9 160.1 492.6C105.3 506.4 52.6 523.6 0 540.8L0 0Z" fill="#f4f4f4"></path></g></svg>