<svg id="visual" viewBox="0 0 900 600" width="900" height="600" xmlns="http://www.w3.org/2000/svg" xmlns:xlink="http://www.w3.org/1999/xlink" version="1.1"><rect width="900" height="600" fill="#f4f4f4"></rect><g><g transform="translate(163 548)"><path d="M0 -85.9L74.4 -42.9L74.4 42.9L0 85.9L-74.4 42.9L-74.4 -42.9Z" fill="none" stroke="#0d4dfd" stroke-width="2"></path></g><g transform="translate(531 43)"><path d="M0 -82L71 -41L71 41L0 82L-71 41L-71 -41Z" fill="none" stroke="#0d4dfd" stroke-width="2"></path></g><g transform="translate(171 304)"><path d="M0 -67L58 -33.5L58 33.5L0 67L-58 33.5L-58 -33.5Z" fill="none" stroke="#0d4dfd" stroke-width="2"></path></g><g transform="translate(493 244)"><path d="M0 -80L69.3 -40L69.3 40L0 80L-69.3 40L-69.3 -40Z" fill="none" stroke="#0d4dfd" stroke-width="2"></path></g><g transform="translate(355 446)"><path d="M0 -73L63.2 -36.5L63.2 36.5L0 73L-63.2 36.5L-63.2 -36.5Z" fill="none" stroke="#0d4dfd" stroke-width="2"></path></g><g transform="translate(739 599)"><path d="M0 -71L61.5 -35.5L61.5 35.5L0 71L-61.5 35.5L-61.5 -35.5Z" fill="none" stroke="#0d4dfd" stroke-width="2"></path></g><g transform="translate(285 175)"><path d="M0 -70L60.6 -35L60.6 35L0 70L-60.6 35L-60.6 -35Z" fill="none" stroke="#0d4dfd" stroke-width="2"></path></g><g transform="translate(73 86)"><path d="M0 -66L57.2 -33L57.2 33L0 66L-57.2 33L-57.2 -33Z" fill="none" stroke="#0d4dfd" stroke-width="2"></path></g><g transform="translate(870 264)"><path d="M0 -70L60.6 -35L60.6 35L0 70L-60.6 35L-60.6 -35Z" fill="none" stroke="#0d4dfd" stroke-width="2"></path></g></g></svg>